# xmcd CD database file
#
# Track frame offsets:
#	150
#	19198
#	44398
#	60901
#	80713
#	99920
#	118550
#	137833
#	154803
#	176718
#	198334
#	212049
#	233539
#	332550
#
# Disc length: 4440 seconds
#
# Revision: 6
# Processed by: cddbd v1.5.2PL0 Copyright (c) Steve Scherf et al.
# Submitted via: CDex 1.70beta2
#
DISCID=b611560e
DTITLE=電気グルーヴ - Singles and Strikes (Disc1)
DYEAR=2004
DGENRE=Techno
TTITLE0=Shangri-La
TTITLE1=ポポ (radio edit)
TTITLE2=ポケット カウボーイ (single edit)
TTITLE3=カメライフ (single mix)
TTITLE4=誰だ! (radio edit)
TTITLE5=スネークフィンガー
TTITLE6=N.O.
TTITLE7=Nothing's Gonna Change (short)
TTITLE8=虹 (short cut mix)
TTITLE9=Flashback Disco
TTITLE10=Mud Ebis～800yen mix～
TTITLE11=弾けないギターを弾くんだぜ
TTITLE12=LGCD2
TTITLE13=LGCD2
EXTD=YEAR: 2004
EXTT0=
EXTT1=
EXTT2=
EXTT3=
EXTT4=
EXTT5=
EXTT6=
EXTT7=
EXTT8=
EXTT9=
EXTT10=
EXTT11=
EXTT12=
EXTT13=
PLAYORDER=
